<svg width="50" height="20" viewBox="0 0 50 20" fill="none" xmlns="http://www.w3.org/2000/svg">
<path d="M9.87862 2.5785C9.30773 3.25404 8.39432 3.78687 7.4809 3.71075C7.36672 2.79734 7.81392 1.82683 8.33723 1.2274C8.90811 0.532826 9.90716 0.038059 10.7159 0C10.8111 0.951475 10.44 1.88392 9.87862 2.5785ZM10.7064 3.89153C9.38385 3.81541 8.2516 4.6432 7.62362 4.6432C6.98613 4.6432 6.02514 3.92959 4.97852 3.94862C3.61791 3.96765 2.35245 4.73834 1.65787 5.96575C0.230662 8.42055 1.2868 12.0552 2.66644 14.0533C3.34198 15.0428 4.15074 16.1275 5.21639 16.0894C6.22495 16.0514 6.62457 15.4329 7.84246 15.4329C9.06986 15.4329 9.42191 16.0894 10.4876 16.0704C11.5913 16.0514 12.2858 15.0809 12.9614 14.0913C13.7321 12.9686 14.0461 11.8744 14.0651 11.8173C14.0461 11.7983 11.9338 10.9895 11.9148 8.55376C11.8957 6.5176 13.5799 5.5471 13.656 5.49001C12.7045 4.08183 11.2202 3.92959 10.7064 3.89153ZM18.3467 1.13225V15.9657H20.6493V10.8944H23.8368C26.7483 10.8944 28.7939 8.89629 28.7939 6.00381C28.7939 3.11132 26.7863 1.13225 23.9129 1.13225H18.3467ZM20.6493 3.07326H23.3039C25.302 3.07326 26.4438 4.13892 26.4438 6.01332C26.4438 7.88773 25.302 8.96289 23.2944 8.96289H20.6493V3.07326ZM32.9995 16.0799C34.4457 16.0799 35.7873 15.3473 36.3962 14.1865H36.4438V15.9657H38.5751V8.5823C38.5751 6.44148 36.8624 5.06185 34.2269 5.06185C31.7816 5.06185 29.9738 6.46051 29.9072 8.38249H31.9814C32.1526 7.46908 32.9995 6.86965 34.1603 6.86965C35.5684 6.86965 36.3582 7.52617 36.3582 8.73454V9.55281L33.4847 9.72407C30.8111 9.88582 29.3648 10.98 29.3648 12.883C29.3648 14.8049 30.8586 16.0799 32.9995 16.0799ZM33.6179 14.3197C32.3905 14.3197 31.6103 13.7298 31.6103 12.8259C31.6103 11.8934 32.362 11.3511 33.7987 11.2655L36.3582 11.1037V11.941C36.3582 13.3302 35.1783 14.3197 33.6179 14.3197ZM41.42 20C43.6655 20 44.7216 19.1437 45.6446 16.5461L49.6883 5.20457H47.3477L44.636 13.9676H44.5884L41.8767 5.20457H39.4695L43.3705 16.0038L43.1612 16.6603C42.8092 17.7735 42.2383 18.2017 41.2202 18.2017C41.0394 18.2017 40.6874 18.1827 40.5446 18.1637V19.9429C40.6779 19.981 41.2487 20 41.42 20Z" fill="black"/>
</svg>
