<svg width="26" height="20" viewBox="0 0 26 20" fill="none" xmlns="http://www.w3.org/2000/svg">
<g clip-path="url(#clip0_263_1116)">
<path d="M25.4942 19.7288V19.7802H25.5421C25.5511 19.7804 25.56 19.7781 25.5678 19.7737C25.5709 19.7715 25.5734 19.7685 25.5751 19.7651C25.5768 19.7616 25.5776 19.7578 25.5774 19.754C25.5776 19.7503 25.5768 19.7465 25.5751 19.7432C25.5734 19.7398 25.5709 19.737 25.5678 19.7348C25.56 19.7302 25.5511 19.7279 25.5421 19.7283H25.4942V19.7288ZM25.5426 19.6924C25.5631 19.6912 25.5835 19.6971 25.6001 19.7091C25.6068 19.7146 25.6121 19.7216 25.6156 19.7295C25.6191 19.7374 25.6207 19.746 25.6203 19.7546C25.6206 19.7621 25.6193 19.7695 25.6165 19.7764C25.6137 19.7833 25.6095 19.7895 25.6041 19.7946C25.5912 19.8058 25.5751 19.8125 25.5581 19.8138L25.6223 19.887H25.5729L25.5139 19.8143H25.4948V19.887H25.4534V19.6926H25.5433L25.5426 19.6924ZM25.5298 19.9541C25.5515 19.9543 25.5729 19.95 25.5928 19.9413C25.612 19.933 25.6294 19.9212 25.6441 19.9064C25.6589 19.8917 25.6707 19.8742 25.6789 19.855C25.6958 19.8143 25.6958 19.7685 25.6789 19.7278C25.6706 19.7086 25.6588 19.6912 25.6441 19.6764C25.6294 19.6616 25.6119 19.6498 25.5928 19.6415C25.5728 19.6333 25.5514 19.6292 25.5298 19.6295C25.5078 19.6292 25.486 19.6333 25.4656 19.6415C25.446 19.6496 25.4282 19.6615 25.4131 19.6764C25.3904 19.6997 25.3751 19.7292 25.369 19.7612C25.3629 19.7932 25.3663 19.8263 25.3789 19.8563C25.3867 19.8756 25.3983 19.8931 25.4131 19.9077C25.4282 19.9226 25.446 19.9344 25.4656 19.9426C25.4859 19.9512 25.5077 19.9556 25.5298 19.9554M25.5298 19.5827C25.5862 19.5826 25.6404 19.6048 25.6806 19.6444C25.7 19.6634 25.7154 19.686 25.726 19.7111C25.737 19.7368 25.7426 19.7644 25.7426 19.7924C25.7426 19.8203 25.737 19.848 25.726 19.8737C25.7152 19.8986 25.6998 19.9212 25.6806 19.9404C25.6609 19.9593 25.638 19.9745 25.6129 19.9854C25.5867 19.9966 25.5584 20.0022 25.5298 20.0021C25.5009 20.0023 25.4722 19.9966 25.4456 19.9854C25.4203 19.9748 25.3972 19.9595 25.3775 19.9404C25.3583 19.9205 25.3431 19.8971 25.3327 19.8715C25.3217 19.8458 25.316 19.8181 25.316 19.7902C25.316 19.7622 25.3217 19.7346 25.3327 19.7089C25.3433 19.6839 25.3587 19.6612 25.3781 19.6422C25.3975 19.6227 25.4207 19.6074 25.4462 19.5972C25.4729 19.586 25.5015 19.5803 25.5304 19.5805M5.87939 18.8316C5.87939 18.4608 6.12194 18.1562 6.51836 18.1562C6.8972 18.1562 7.15284 18.4477 7.15284 18.8316C7.15284 19.2156 6.8972 19.5071 6.51836 19.5071C6.12194 19.5071 5.87939 19.2025 5.87939 18.8316ZM7.58468 18.8316V17.7764H7.12666V18.0334C6.98139 17.8435 6.76104 17.7243 6.46138 17.7243C5.87105 17.7243 5.40776 18.1881 5.40776 18.8321C5.40776 19.4762 5.87079 19.94 6.46138 19.94C6.76091 19.94 6.98139 19.8207 7.12666 19.6309V19.887H7.58417V18.8316H7.58468ZM23.0607 18.8316C23.0607 18.4608 23.3032 18.1562 23.6998 18.1562C24.079 18.1562 24.3342 18.4477 24.3342 18.8316C24.3342 19.2156 24.079 19.5071 23.6998 19.5071C23.3033 19.5071 23.0607 19.2025 23.0607 18.8316ZM24.7665 18.8316V16.9293H24.3081V18.0334C24.1628 17.8435 23.9424 17.7243 23.6428 17.7243C23.0524 17.7243 22.5892 18.1881 22.5892 18.8321C22.5892 19.4762 23.0522 19.94 23.6428 19.94C23.9424 19.94 24.1628 19.8207 24.3081 19.6309V19.887H24.7665V18.8316ZM13.2693 18.1345C13.5645 18.1345 13.754 18.3198 13.8024 18.6462H12.7095C12.7584 18.3415 12.9431 18.1345 13.2695 18.1345M13.2786 17.7232C12.6613 17.7232 12.2294 18.173 12.2294 18.831C12.2294 19.5018 12.6786 19.9388 13.3092 19.9388C13.6265 19.9388 13.917 19.8595 14.1727 19.6432L13.9482 19.3032C13.7716 19.4446 13.5468 19.5239 13.3354 19.5239C13.0403 19.5239 12.7715 19.387 12.7054 19.0072H14.2694C14.2739 18.9501 14.2785 18.8926 14.2785 18.8309C14.2739 18.1732 13.8679 17.723 13.2783 17.723M18.8082 18.8309C18.8082 18.46 19.0508 18.1554 19.4472 18.1554C19.826 18.1554 20.0817 18.4469 20.0817 18.8309C20.0817 19.2148 19.826 19.5063 19.4472 19.5063C19.0508 19.5063 18.8081 19.2017 18.8081 18.8309M20.5134 18.8309V17.7764H20.0556V18.0334C19.9098 17.8435 19.69 17.7243 19.3903 17.7243C18.8 17.7243 18.3367 18.1881 18.3367 18.8321C18.3367 19.4762 18.7997 19.94 19.3903 19.94C19.69 19.94 19.9098 19.8207 20.0556 19.6309V19.887H20.5135V18.8316L20.5134 18.8309ZM16.2216 18.8309C16.2216 19.4708 16.6664 19.9387 17.3453 19.9387C17.6626 19.9387 17.8739 19.868 18.1025 19.6872L17.8825 19.3163C17.7106 19.4401 17.53 19.5063 17.3307 19.5063C16.9651 19.5018 16.6962 19.237 16.6962 18.8309C16.6962 18.4247 16.9651 18.16 17.3307 18.1554C17.5295 18.1554 17.7101 18.2216 17.8825 18.3454L18.1025 17.9746C17.8735 17.7937 17.6622 17.723 17.3453 17.723C16.6664 17.723 16.2216 18.1908 16.2216 18.8309ZM22.1263 17.723C21.862 17.723 21.6899 17.8468 21.571 18.0321V17.7764H21.117V19.8859H21.5756V18.7034C21.5756 18.3543 21.7253 18.1603 22.0247 18.1603C22.1228 18.1589 22.2201 18.1769 22.3112 18.2134L22.4524 17.781C22.351 17.741 22.2188 17.7234 22.126 17.7234M9.84912 17.9441C9.62877 17.7986 9.32514 17.7234 8.99019 17.7234C8.45658 17.7234 8.11303 17.9796 8.11303 18.3987C8.11303 18.7427 8.3688 18.9549 8.83978 19.0211L9.05615 19.0519C9.3073 19.0873 9.42588 19.1535 9.42588 19.2726C9.42588 19.4357 9.25905 19.5288 8.94578 19.5288C8.62854 19.5288 8.3996 19.4273 8.24521 19.3081L8.03 19.6658C8.28115 19.8512 8.59839 19.9396 8.94193 19.9396C9.55023 19.9396 9.90277 19.6527 9.90277 19.251C9.90277 18.8802 9.62531 18.6863 9.1669 18.6201L8.95105 18.5887C8.75277 18.563 8.59389 18.523 8.59389 18.3816C8.59389 18.2274 8.74366 18.1346 8.99494 18.1346C9.26379 18.1346 9.52405 18.2361 9.65162 18.3154L9.84989 17.9446L9.84912 17.9441ZM15.759 17.7238C15.4948 17.7238 15.3227 17.8476 15.2042 18.0329V17.7764H14.7503V19.8859H15.2083V18.7034C15.2083 18.3543 15.3581 18.1603 15.6575 18.1603C15.7555 18.1589 15.8529 18.1769 15.9439 18.2134L16.0851 17.781C15.9837 17.741 15.8515 17.7234 15.7587 17.7234M11.8505 17.7764H11.1015V17.1364H10.6385V17.7764H10.2113V18.1956H10.6385V19.158C10.6385 19.6474 10.8282 19.939 11.37 19.939C11.5688 19.939 11.7977 19.8773 11.943 19.7759L11.8107 19.383C11.674 19.4624 11.5243 19.5023 11.4052 19.5023C11.1762 19.5023 11.1015 19.3609 11.1015 19.1492V18.196H11.8505V17.7764ZM5.00274 19.8864V18.5625C5.00274 18.0639 4.6855 17.7284 4.17409 17.7239C3.90524 17.7194 3.62791 17.8032 3.43374 18.0992C3.28847 17.8653 3.05952 17.7239 2.73766 17.7239C2.51269 17.7239 2.29286 17.7901 2.12076 18.0372V17.7764H1.66235V19.8859H2.12435V18.7162C2.12435 18.35 2.32712 18.1554 2.64025 18.1554C2.9444 18.1554 3.09828 18.354 3.09828 18.7116V19.8856H3.5613V18.716C3.5613 18.3498 3.77267 18.1552 4.07669 18.1552C4.38944 18.1552 4.53869 18.3537 4.53869 18.7113V19.8854L5.00274 19.8864Z" fill="#231F20"/>
<path d="M25.7554 12.8692V12.5607H25.6752L25.5824 12.7724L25.4901 12.5607H25.4097V12.8692H25.4667V12.6368L25.5534 12.8373H25.6124L25.6992 12.6362V12.8692H25.7557H25.7554ZM25.2466 12.8692V12.6135H25.3492V12.5614H25.0869V12.6135H25.1896V12.8692H25.246H25.2466Z" fill="#F79410"/>
<path d="M16.639 14.1922H9.698V1.69861H16.6392L16.639 14.1922Z" fill="#FF5F00"/>
<path d="M10.138 7.94552C10.138 5.4112 11.3228 3.15361 13.1677 1.69873C11.7712 0.595834 10.044 -0.0027453 8.26553 -0.000113428C3.88461 -0.000113428 0.333374 3.55721 0.333374 7.94552C0.333374 12.3338 3.88461 15.8911 8.26553 15.8911C10.044 15.8938 11.7713 15.2952 13.1679 14.1923C11.3231 12.7377 10.138 10.48 10.138 7.94552Z" fill="#EB001B"/>
<path d="M26.0032 7.94564C26.0032 12.3339 22.452 15.8913 18.0711 15.8913C16.2924 15.8939 14.5649 15.2953 13.1681 14.1924C15.0135 12.7375 16.1983 10.4801 16.1983 7.94564C16.1983 5.41119 15.0135 3.15374 13.1681 1.69885C14.5649 0.595989 16.2923 -0.0025771 18.0709 8.34056e-06C22.4519 8.34056e-06 26.0031 3.55733 26.0031 7.94564" fill="#F79E1B"/>
</g>
<defs>
<clipPath id="clip0_263_1116">
<rect width="25.6667" height="20" fill="white" transform="translate(0.333374)"/>
</clipPath>
</defs>
</svg>
