<svg width="21" height="20" viewBox="0 0 21 20" fill="none" xmlns="http://www.w3.org/2000/svg">
<g clip-path="url(#clip0_263_1161)">
<path d="M20.5 10C20.5 4.47656 16.0234 0 10.5 0C4.97656 0 0.5 4.47656 0.5 10C0.5 14.9918 4.15469 19.1289 8.93828 19.8793V12.893H6.40117V10H8.93828V7.79727C8.93828 5.29297 10.4285 3.90703 12.7137 3.90703C13.8094 3.90703 14.9547 4.1043 14.9547 4.1043V6.56445H13.6945C12.4508 6.56445 12.0672 7.33711 12.0672 8.12617V10H14.8398L14.3961 12.893H12.0672V19.8793C16.8453 19.1289 20.5 14.9918 20.5 10Z" fill="#1877F2"/>
<path d="M14.3903 12.8929L14.8344 9.99995H12.0618V8.12612C12.0618 7.33706 12.4508 6.5644 13.6891 6.5644H14.9493V4.10425C14.9493 4.10425 13.804 3.90698 12.7083 3.90698C10.4235 3.90698 8.93286 5.29331 8.93286 7.79722V9.99995H6.39575V12.8929H8.93286V19.8792C9.44263 19.9613 9.96294 20 10.4946 20C11.0262 20 11.5465 19.9562 12.0563 19.8792V12.8929H14.3903Z" fill="white"/>
</g>
<defs>
<clipPath id="clip0_263_1161">
<rect width="20" height="20" fill="white" transform="translate(0.5)"/>
</clipPath>
</defs>
</svg>
