<svg width="21" height="22" viewBox="0 0 21 22" fill="none" xmlns="http://www.w3.org/2000/svg">
<g clip-path="url(#clip0_263_1154)">
<path d="M20.5 11.109C20.5 10.2699 20.4319 9.6575 20.2846 9.02246H10.7041V12.81H16.3276C16.2143 13.7513 15.6021 15.1688 14.2415 16.1213L14.2224 16.2481L17.2516 18.5952L17.4615 18.6161C19.3889 16.8357 20.5 14.2162 20.5 11.109Z" fill="#4285F4"/>
<path d="M10.7041 21.0883C13.4591 21.0883 15.772 20.181 17.4614 18.6161L14.2414 16.1213C13.3798 16.7223 12.2233 17.1419 10.7041 17.1419C8.00566 17.1419 5.71542 15.3615 4.89902 12.9008L4.77935 12.9109L1.62957 15.349L1.58838 15.4636C3.26637 18.7975 6.71309 21.0883 10.7041 21.0883Z" fill="#34A853"/>
<path d="M4.89905 12.9008C4.68363 12.2658 4.55897 11.5853 4.55897 10.8823C4.55897 10.1792 4.68363 9.49879 4.88772 8.86375L4.88201 8.7285L1.69276 6.25122L1.58841 6.30086C0.89683 7.68437 0.5 9.23799 0.5 10.8823C0.5 12.5266 0.89683 14.0801 1.58841 15.4636L4.89905 12.9008Z" fill="#FBBC05"/>
<path d="M10.7041 4.62258C12.6201 4.62258 13.9126 5.4504 14.6496 6.14219L17.5294 3.32984C15.7608 1.68554 13.4591 0.67627 10.7041 0.67627C6.71309 0.67627 3.26637 2.96694 1.58838 6.30089L4.88769 8.86378C5.71542 6.40299 8.00566 4.62258 10.7041 4.62258Z" fill="#EB4335"/>
</g>
<defs>
<clipPath id="clip0_263_1154">
<rect width="20" height="20.4706" fill="white" transform="translate(0.5 0.646973)"/>
</clipPath>
</defs>
</svg>
