<svg width="52" height="20" viewBox="0 0 52 20" fill="none" xmlns="http://www.w3.org/2000/svg">
<path d="M24.6242 9.75101V15.5989H22.7381V1.13647H27.6434C28.8376 1.13647 29.9688 1.5758 30.8504 2.39352C31.731 3.14735 32.1713 4.27957 32.1713 5.4747C32.1713 6.66982 31.732 7.73816 30.8504 8.55588C29.9698 9.3736 28.9014 9.81292 27.6434 9.81292L24.6242 9.75101ZM24.6242 2.89673V7.92785H27.7692C28.4611 7.92785 29.153 7.67526 29.5934 7.17402C30.5998 6.23148 30.5998 4.65895 29.6553 3.71543L29.5934 3.65154C29.0901 3.14833 28.4611 2.83383 27.7692 2.89771H24.6242V2.89673Z" fill="#5F6368"/>
<path d="M36.5095 5.41284C37.8933 5.41284 38.9617 5.78927 39.7794 6.54506C40.5971 7.2989 40.9735 8.30532 40.9735 9.56334V15.6009H39.2133V14.2171H39.1513C38.3975 15.3493 37.3272 15.9154 36.0702 15.9154C35.0018 15.9154 34.0573 15.6009 33.3035 14.9729C32.6116 14.3438 32.1713 13.4632 32.1713 12.5207C32.1713 11.5143 32.5487 10.6985 33.3035 10.0685C34.0573 9.43951 35.1257 9.1879 36.3847 9.1879C37.5169 9.1879 38.3975 9.37661 39.0884 9.81692V9.37759C39.0884 8.74858 38.8378 8.12055 38.3346 7.74216C37.8314 7.30283 37.2024 7.05024 36.5105 7.05024C35.4421 7.05024 34.6244 7.48957 34.0583 8.37117L32.4229 7.36475C33.4283 6.04087 34.7492 5.41284 36.5095 5.41284ZM34.1202 12.5806C34.1202 13.0839 34.3708 13.5232 34.7492 13.7748C35.1886 14.0893 35.6918 14.278 36.195 14.278C36.9488 14.278 37.7046 13.9635 38.2697 13.3984C38.8988 12.8313 39.2123 12.1413 39.2123 11.3855C38.6471 10.9462 37.8285 10.6936 36.7601 10.6936C36.0063 10.6936 35.3763 10.8823 34.8741 11.2587C34.3708 11.5742 34.1202 12.0145 34.1202 12.5806Z" fill="#5F6368"/>
<path d="M51.1604 5.72729L44.9361 20H43.0481L45.3754 15.0328L41.2878 5.78921H43.3007L46.2551 12.8941H46.318L49.2105 5.78921H51.1604V5.72729Z" fill="#5F6368"/>
<path d="M17.1427 8.49399C17.1427 7.92689 17.0788 7.36177 17.0169 6.79565H9.15717V10.0026H13.6212C13.4325 11.0091 12.8674 11.9516 11.9858 12.5177V14.5925H14.6895C16.2611 13.1467 17.1427 11.0081 17.1427 8.49399Z" fill="#4285F4"/>
<path d="M9.15531 16.6042C11.4188 16.6042 13.3048 15.8504 14.6896 14.5914L11.9859 12.5166C11.232 13.0198 10.2875 13.3343 9.15727 13.3343C7.01863 13.3343 5.13257 11.8886 4.50454 9.87573H1.7359V12.0144C3.18165 14.844 6.01221 16.6042 9.15531 16.6042Z" fill="#34A853"/>
<path d="M4.5025 9.87676C4.12509 8.87034 4.12509 7.73811 4.5025 6.66977V4.53113H1.73582C0.540696 6.85848 0.540696 9.62515 1.73582 12.0144L4.5025 9.87676Z" fill="#FBBC04"/>
<path d="M9.15527 3.27415C10.3504 3.27415 11.4826 3.71348 12.3623 4.53119L14.7525 2.14193C13.2429 0.759081 11.231 -0.0586357 9.21817 0.00328272C6.07311 0.00328272 3.1826 1.76354 1.79877 4.5941L4.56544 6.73077C5.13155 4.72088 7.01761 3.27415 9.15527 3.27415Z" fill="#EA4335"/>
</svg>
