<svg width="76" height="20" viewBox="0 0 76 20" fill="none" xmlns="http://www.w3.org/2000/svg">
<path d="M12.8546 0.970692C11.9143 0.324249 10.6872 0.000244141 9.17346 0.000244141H3.31293C2.84886 0.000244141 2.59248 0.232332 2.54378 0.69606L0.163113 15.6402C0.13837 15.7869 0.175092 15.9212 0.272943 16.0432C0.370234 16.1655 0.492603 16.2263 0.639156 16.2263H3.42287C3.91112 16.2263 4.17948 15.9947 4.22874 15.5304L4.88795 11.5015C4.91202 11.3063 4.99789 11.1475 5.14444 11.0253C5.29088 10.9032 5.47404 10.8234 5.69382 10.7869C5.91359 10.7506 6.12082 10.7323 6.31652 10.7323C6.51167 10.7323 6.74353 10.7447 7.01256 10.769C7.28093 10.7933 7.452 10.8053 7.52533 10.8053C9.62521 10.8053 11.2734 10.2136 12.4702 9.02884C13.6663 7.84477 14.2651 6.20281 14.2651 4.10226C14.2651 2.66159 13.7945 1.61781 12.8546 0.970356V0.970692ZM9.833 5.45795C9.71052 6.31275 9.39345 6.8741 8.88069 7.1428C8.36781 7.41184 7.63527 7.54574 6.68307 7.54574L5.47427 7.58224L6.09709 3.66294C6.14568 3.39457 6.30432 3.26022 6.57313 3.26022H7.26928C8.24555 3.26022 8.95413 3.40096 9.39368 3.6813C9.833 3.96231 9.97955 4.55468 9.833 5.45795Z" fill="#003087"/>
<path d="M74.7011 0H71.9909C71.7216 0 71.563 0.134351 71.5147 0.403161L69.1338 15.6406L69.097 15.7138C69.097 15.8365 69.1459 15.9519 69.2438 16.0619C69.3409 16.1716 69.4636 16.2266 69.6099 16.2266H72.0278C72.4909 16.2266 72.7474 15.995 72.797 15.5308L75.1777 0.549712V0.513326C75.1776 0.171296 75.0184 0.000449293 74.7011 0.000449293V0Z" fill="#009CDE"/>
<path d="M41.9557 5.8979C41.9557 5.77609 41.9067 5.65988 41.8096 5.55027C41.7116 5.44044 41.6017 5.38513 41.4799 5.38513H38.6596C38.3904 5.38513 38.1707 5.50784 38 5.75134L34.1176 11.4655L32.5059 5.97134C32.3832 5.58095 32.115 5.38513 31.7002 5.38513H28.9526C28.8303 5.38513 28.7204 5.44022 28.6234 5.55027C28.5254 5.65988 28.4768 5.77631 28.4768 5.8979C28.4768 5.94705 28.7149 6.66716 29.191 8.05901C29.667 9.45132 30.1798 10.9531 30.7293 12.5649C31.2788 14.1763 31.5655 15.0314 31.59 15.1282C29.5875 17.8636 28.5867 19.3287 28.5867 19.5237C28.5867 19.8414 28.7452 20 29.0629 20H31.8832C32.1517 20 32.3714 19.8782 32.5427 19.6339L41.8829 6.15417C41.9314 6.1058 41.9557 6.02071 41.9557 5.89778V5.8979Z" fill="#003087"/>
<path d="M68.2187 5.38517H65.4349C65.0926 5.38517 64.8859 5.78821 64.8125 6.5942C64.1768 5.6177 63.0177 5.12878 61.3324 5.12878C59.5744 5.12878 58.0785 5.78821 56.8456 7.10685C55.6123 8.42549 54.996 9.97655 54.996 11.7589C54.996 13.1999 55.4172 14.3475 56.2594 15.2018C57.1019 16.0571 58.2311 16.4839 59.6479 16.4839C60.3559 16.4839 61.0763 16.3371 61.8088 16.0443C62.5414 15.7513 63.1147 15.3608 63.5306 14.8722C63.5306 14.8967 63.5056 15.0062 63.4574 15.2015C63.408 15.3972 63.3839 15.5442 63.3839 15.641C63.3839 16.0322 63.5423 16.227 63.8602 16.227H66.3878C66.8512 16.227 67.1201 15.9955 67.1931 15.5312L68.6951 5.97115C68.7192 5.82449 68.6827 5.69047 68.5852 5.56822C68.487 5.44641 68.3652 5.38517 68.2187 5.38517ZM63.4388 12.6013C62.8161 13.2118 62.0651 13.5169 61.1861 13.5169C60.4776 13.5169 59.9043 13.3218 59.4645 12.9309C59.0248 12.541 58.805 12.0038 58.805 11.3193C58.805 10.4164 59.1103 9.65265 59.721 9.03006C60.3306 8.40735 61.0884 8.09611 61.9919 8.09611C62.675 8.09611 63.2429 8.29752 63.6951 8.70023C64.1464 9.10328 64.373 9.65881 64.373 10.3672C64.3728 11.2461 64.0614 11.9911 63.4388 12.6013Z" fill="#009CDE"/>
<path d="M26.6087 5.38517H23.8249C23.4825 5.38517 23.2754 5.78821 23.2021 6.5942C22.5427 5.6177 21.3827 5.12878 19.7223 5.12878C17.9641 5.12878 16.4683 5.78821 15.2353 7.10685C14.0019 8.42549 13.3856 9.97655 13.3856 11.7589C13.3856 13.1999 13.8069 14.3475 14.6494 15.2018C15.4919 16.0571 16.621 16.4839 18.0375 16.4839C18.7208 16.4839 19.4294 16.3371 20.1619 16.0443C20.8944 15.7513 21.4805 15.3608 21.92 14.8722C21.8221 15.165 21.7735 15.4215 21.7735 15.641C21.7735 16.0322 21.9321 16.227 22.2496 16.227H24.777C25.2406 16.227 25.5095 15.9955 25.5828 15.5312L27.0845 5.97115C27.1086 5.82449 27.0721 5.69047 26.9747 5.56822C26.877 5.44641 26.755 5.38517 26.6087 5.38517ZM21.8287 12.6194C21.2059 13.2184 20.4424 13.5169 19.5395 13.5169C18.8309 13.5169 18.2632 13.3218 17.8362 12.9309C17.4086 12.541 17.1951 12.0038 17.1951 11.3193C17.1951 10.4164 17.5002 9.65265 18.1109 9.03006C18.721 8.40735 19.478 8.09599 20.3818 8.09599C21.0652 8.09599 21.633 8.29752 22.0852 8.70023C22.5366 9.10328 22.7627 9.65881 22.7627 10.3672C22.7626 11.2707 22.4514 12.0218 21.8287 12.6194Z" fill="#003087"/>
<path d="M54.4647 0.970692C53.5245 0.324249 52.2978 0.000244141 50.7837 0.000244141H44.9596C44.4712 0.000244141 44.2023 0.232332 44.1539 0.69606L41.773 15.6402C41.7482 15.7869 41.785 15.9212 41.8829 16.0432C41.9798 16.1655 42.1025 16.2263 42.249 16.2263H45.2524C45.5454 16.2263 45.7406 16.0677 45.8386 15.7502L46.4979 11.5015C46.5222 11.3063 46.6076 11.1475 46.7544 11.0253C46.901 10.9032 47.0839 10.8234 47.3039 10.7869C47.5234 10.7506 47.7307 10.7323 47.9265 10.7323C48.1218 10.7323 48.3535 10.7447 48.6223 10.769C48.8908 10.7933 49.0623 10.8053 49.1351 10.8053C51.2354 10.8053 52.8833 10.2136 54.08 9.02884C55.2766 7.84477 55.8748 6.20281 55.8748 4.10226C55.8749 2.66159 55.4046 1.61769 54.4647 0.970356V0.970692ZM50.7104 6.99614C50.1731 7.36235 49.3672 7.5454 48.293 7.5454L47.1207 7.58212L47.7434 3.66271C47.7918 3.39446 47.9506 3.25989 48.2195 3.25989H48.8786C49.4159 3.25989 49.8431 3.28441 50.1611 3.33311C50.4779 3.38215 50.7837 3.53452 51.0767 3.79079C51.3699 4.04729 51.5162 4.41988 51.5162 4.90802C51.5162 5.934 51.2473 6.62959 50.7104 6.99614Z" fill="#009CDE"/>
</svg>
